<svg width="12" height="10" viewBox="0 0 12 10" fill="none" xmlns="http://www.w3.org/2000/svg">
<path d="M5.6291 9.05C4.54244 9.05 3.60244 8.90333 2.8091 8.61C2.02244 8.31667 1.41577 7.86333 0.989102 7.25C0.569102 6.63667 0.359102 5.84667 0.359102 4.88C0.359102 4.08667 0.512435 3.41333 0.819102 2.86C1.12577 2.30667 1.54577 1.85667 2.0791 1.51C2.61243 1.16333 3.22577 0.91 3.9191 0.75C4.61244 0.59 5.34577 0.509999 6.1191 0.509999C6.91244 0.509999 7.64244 0.583333 8.3091 0.73C8.97577 0.876666 9.5591 1.10333 10.0591 1.41C10.5591 1.71667 10.9458 2.11 11.2191 2.59C11.4991 3.06333 11.6391 3.63333 11.6391 4.3C11.6391 4.74667 11.5891 5.13667 11.4891 5.47C11.3891 5.80333 11.2524 6.08667 11.0791 6.32C10.9058 6.54667 10.7058 6.73333 10.4791 6.88C10.2591 7.02 10.0224 7.12333 9.7691 7.19C9.51577 7.25 9.2591 7.28 8.9991 7.28C8.6791 7.28 8.4191 7.24667 8.2191 7.18C8.02577 7.10667 7.88244 7.00667 7.7891 6.88C7.69577 6.75333 7.6391 6.61 7.6191 6.45H7.5491C7.38244 6.63 7.17577 6.78333 6.9291 6.91C6.6891 7.03667 6.4291 7.13333 6.1491 7.2C5.8691 7.26 5.58577 7.29 5.2991 7.29C5.0391 7.29 4.79244 7.27 4.5591 7.23C4.32577 7.18333 4.12244 7.11 3.9491 7.01C3.77577 6.90333 3.6391 6.76667 3.5391 6.6C3.44577 6.43333 3.3991 6.22333 3.3991 5.97C3.3991 5.57667 3.50244 5.27 3.7091 5.05C3.92244 4.83 4.2191 4.67 4.5991 4.57C4.9791 4.47 5.4191 4.41 5.9191 4.39C6.42577 4.36333 6.97244 4.35 7.5591 4.35V4.07C7.5591 3.77667 7.5091 3.55333 7.4091 3.4C7.3091 3.24 7.14244 3.13 6.9091 3.07C6.68244 3.00333 6.36577 2.97 5.9591 2.97C5.6391 2.97 5.36577 2.99667 5.1391 3.05C4.9191 3.09667 4.7491 3.17333 4.6291 3.28C4.5091 3.38 4.4491 3.51 4.4491 3.67V3.84H3.6191C3.61244 3.82 3.6091 3.79667 3.6091 3.77C3.6091 3.73667 3.6091 3.70333 3.6091 3.67C3.6091 3.37667 3.6991 3.13 3.8791 2.93C4.0591 2.72333 4.3291 2.56667 4.6891 2.46C5.05577 2.34667 5.51244 2.29 6.0591 2.29C6.56577 2.29 6.9891 2.34333 7.3291 2.45C7.67577 2.55 7.93577 2.72 8.1091 2.96C8.2891 3.19333 8.3791 3.51667 8.3791 3.93V6.09C8.3791 6.27667 8.42244 6.41333 8.5091 6.5C8.59577 6.58667 8.7791 6.63 9.0591 6.63C9.41244 6.63 9.7291 6.55667 10.0091 6.41C10.2891 6.25667 10.5124 6.01 10.6791 5.67C10.8524 5.33 10.9391 4.87 10.9391 4.29C10.9391 3.54333 10.7324 2.94 10.3191 2.48C9.91243 2.02 9.34577 1.68333 8.6191 1.47C7.8991 1.25667 7.06244 1.15 6.1091 1.15C5.0691 1.15 4.17243 1.28667 3.4191 1.56C2.66577 1.82667 2.08244 2.23667 1.6691 2.79C1.26243 3.34333 1.0591 4.04333 1.0591 4.89C1.0591 6.06333 1.43243 6.94 2.1791 7.52C2.92577 8.10667 4.08577 8.4 5.6591 8.4C5.87244 8.4 6.12244 8.38667 6.4091 8.36C6.69577 8.33333 6.97577 8.29667 7.2491 8.25C7.5291 8.21 7.7491 8.16 7.9091 8.1V8.76C7.71577 8.81333 7.4791 8.86 7.1991 8.9C6.92577 8.94667 6.64577 8.98333 6.3591 9.01C6.0791 9.03667 5.83577 9.05 5.6291 9.05ZM5.4491 6.62C5.68244 6.62 5.92244 6.59 6.1691 6.53C6.41577 6.47 6.64244 6.38667 6.8491 6.28C7.06244 6.16667 7.23244 6.03333 7.3591 5.88C7.49244 5.72667 7.5591 5.55333 7.5591 5.36V4.94C6.8191 4.94 6.20244 4.96333 5.7091 5.01C5.21577 5.05 4.84577 5.14 4.5991 5.28C4.3591 5.42 4.2391 5.63 4.2391 5.91C4.2391 6.09667 4.29577 6.24333 4.4091 6.35C4.5291 6.45 4.6791 6.52 4.8591 6.56C5.04577 6.6 5.24244 6.62 5.4491 6.62Z" fill="white"/>
</svg>
