<svg width="23" height="24" viewBox="0 0 23 24" fill="none" xmlns="http://www.w3.org/2000/svg">
<path fill-rule="evenodd" clip-rule="evenodd" d="M7 0.75C5.20979 0.75 3.4929 1.46116 2.22703 2.72703C0.961159 3.9929 0.25 5.70979 0.25 7.5V16.5C0.25 18.2902 0.961159 20.0071 2.22703 21.273C3.4929 22.5388 5.20979 23.25 7 23.25H16C17.7902 23.25 19.5071 22.5388 20.773 21.273C22.0388 20.0071 22.75 18.2902 22.75 16.5V7.5C22.75 5.70979 22.0388 3.9929 20.773 2.72703C19.5071 1.46116 17.7902 0.75 16 0.75H7ZM1.75 7.5C1.75 4.6 4.1 2.25 7 2.25H16C18.9 2.25 21.25 4.6 21.25 7.5V16.5C21.25 19.4 18.9 21.75 16 21.75H7C5.60761 21.75 4.27226 21.1969 3.28769 20.2123C2.30312 19.2277 1.75 17.8924 1.75 16.5V7.5ZM19 6.25C19 6.58152 18.8683 6.89946 18.6339 7.13388C18.3995 7.3683 18.0815 7.5 17.75 7.5C17.4185 7.5 17.1005 7.3683 16.8661 7.13388C16.6317 6.89946 16.5 6.58152 16.5 6.25C16.5 5.91848 16.6317 5.60054 16.8661 5.36612C17.1005 5.1317 17.4185 5 17.75 5C18.0815 5 18.3995 5.1317 18.6339 5.36612C18.8683 5.60054 19 5.91848 19 6.25ZM11.5 7.75C10.9419 7.75 10.3892 7.85993 9.8736 8.07351C9.35796 8.28709 8.88944 8.60015 8.4948 8.9948C8.10015 9.38944 7.78709 9.85796 7.57351 10.3736C7.35993 10.8892 7.25 11.4419 7.25 12C7.25 12.5581 7.35993 13.1108 7.57351 13.6264C7.78709 14.142 8.10015 14.6106 8.4948 15.0052C8.88944 15.3999 9.35796 15.7129 9.8736 15.9265C10.3892 16.1401 10.9419 16.25 11.5 16.25C12.6272 16.25 13.7082 15.8022 14.5052 15.0052C15.3022 14.2082 15.75 13.1272 15.75 12C15.75 10.8728 15.3022 9.79183 14.5052 8.9948C13.7082 8.19777 12.6272 7.75 11.5 7.75ZM5.75 12C5.75 10.475 6.3558 9.01247 7.43414 7.93414C8.51247 6.8558 9.97501 6.25 11.5 6.25C13.025 6.25 14.4875 6.8558 15.5659 7.93414C16.6442 9.01247 17.25 10.475 17.25 12C17.25 13.525 16.6442 14.9875 15.5659 16.0659C14.4875 17.1442 13.025 17.75 11.5 17.75C9.97501 17.75 8.51247 17.1442 7.43414 16.0659C6.3558 14.9875 5.75 13.525 5.75 12Z" fill="white"/>
</svg>
