<svg width="25" height="26" viewBox="0 0 25 26" fill="none" xmlns="http://www.w3.org/2000/svg">
<path d="M10.5963 24H18.7418C20.5412 24 22 22.5648 22 20.7945V16.1779C22 14.4075 20.5412 12.9724 18.7418 12.9724H10.5963C8.79685 12.9724 7.33813 14.4076 7.33813 16.1779V20.7945C7.33813 22.5649 8.79691 24 10.5963 24Z" stroke="white" stroke-width="2.25" stroke-linecap="round" stroke-linejoin="round"/>
<path d="M9.07219 11.2288C11.6626 11.2288 13.7625 9.16288 13.7625 6.61441C13.7625 4.06594 11.6626 2 9.07219 2C6.48181 2 4.3819 4.06594 4.3819 6.61441C4.3819 9.16288 6.48181 11.2288 9.07219 11.2288Z" stroke="white" stroke-width="2.25" stroke-linecap="round" stroke-linejoin="round"/>
<path d="M17.8812 11.2289C20.156 11.2289 22 9.41468 22 7.17677C22 4.93885 20.156 3.12466 17.8812 3.12466C15.6065 3.12466 13.7625 4.93885 13.7625 7.17677C13.7625 9.41468 15.6065 11.2289 17.8812 11.2289Z" stroke="white" stroke-width="2.25" stroke-linecap="round" stroke-linejoin="round"/>
<path d="M7.33812 16.9206L4.62908 15.3818C3.90505 14.9705 3 15.4846 3 16.3072V20.679C3 21.5015 3.90505 22.0156 4.62908 21.6044L7.33812 20.0656" stroke="white" stroke-width="2.25" stroke-linecap="round" stroke-linejoin="round"/>
</svg>
