<svg width="18" height="22" viewBox="0 0 18 22" fill="none" xmlns="http://www.w3.org/2000/svg">
<path fill-rule="evenodd" clip-rule="evenodd" d="M0.460177 7.45252C0.836177 3.73552 4.22918 0.00552368 9.03918 0.00552368C12.3672 0.00552368 14.6952 1.26652 16.0842 3.18652C17.4242 5.03952 17.7542 7.31652 17.5282 9.18552C17.3322 10.8105 16.8182 12.7145 15.7752 14.2105C14.6852 15.7725 12.9602 16.9365 10.5722 16.6975C9.36918 16.5775 8.47618 16.1105 7.82218 15.5085C7.59024 16.1906 7.35624 16.8719 7.12018 17.5525C6.72456 18.686 6.34021 19.8234 5.96718 20.9645C5.84314 21.3404 5.57556 21.652 5.22277 21.8315C4.86997 22.0109 4.46054 22.0436 4.08372 21.9225C3.70689 21.8014 3.39322 21.5362 3.21105 21.1848C3.02887 20.8334 2.99298 20.4243 3.11118 20.0465C3.44118 19.0225 3.85618 17.8165 4.28618 16.5715L4.48918 15.9805C5.0093 14.49 5.50636 12.9914 5.98018 11.4855C5.91018 11.3395 5.83118 11.1735 5.75218 10.9955C5.60811 10.6726 5.4816 10.3421 5.37318 10.0055C5.27118 9.68052 5.15818 9.24152 5.15818 8.79852C5.15818 7.89452 5.36818 6.99652 5.95118 6.33052C6.24265 5.99159 6.62127 5.73882 7.04605 5.59958C7.47084 5.46033 7.92562 5.43991 8.36118 5.54052C9.54118 5.80052 9.77618 6.91352 9.82418 7.29052C9.88618 7.78052 9.83018 8.32752 9.75018 8.82252C9.62718 9.58652 9.39218 10.5165 9.10318 11.5125C9.13667 11.8768 9.22431 12.2341 9.36318 12.5725C9.61018 13.1575 10.0072 13.6265 10.8702 13.7125C11.9462 13.8205 12.7002 13.3735 13.3142 12.4945C13.9742 11.5485 14.3862 10.1795 14.5502 8.82552C14.7072 7.52052 14.4522 6.04852 13.6532 4.94552C12.9032 3.90752 11.5392 3.00552 9.03918 3.00552C5.85018 3.00552 3.67418 5.48552 3.44518 7.75452C3.28718 9.31752 3.63718 10.4095 3.98518 10.9175C4.09641 11.0802 4.17451 11.2631 4.21503 11.456C4.25556 11.6488 4.2577 11.8477 4.22135 12.0414C4.18499 12.235 4.11085 12.4196 4.00316 12.5846C3.89546 12.7496 3.75632 12.8918 3.59368 13.003C3.43103 13.1143 3.24808 13.1924 3.05525 13.2329C2.86242 13.2734 2.6635 13.2755 2.46984 13.2392C2.27619 13.2028 2.09159 13.1287 1.92659 13.021C1.76158 12.9133 1.61941 12.7742 1.50818 12.6115C0.661177 11.3735 0.251177 9.52152 0.460177 7.45252Z" fill="#BF4D37"/>
</svg>
