<svg width="19" height="22" viewBox="0 0 19 22" fill="none" xmlns="http://www.w3.org/2000/svg">
<path fill-rule="evenodd" clip-rule="evenodd" d="M0.960146 7.45252C1.33615 3.73552 4.72915 0.00552368 9.53915 0.00552368C12.8671 0.00552368 15.1951 1.26652 16.5841 3.18652C17.9241 5.03952 18.2541 7.31652 18.0281 9.18552C17.8321 10.8105 17.3181 12.7145 16.2751 14.2105C15.1851 15.7725 13.4601 16.9365 11.0721 16.6975C9.86915 16.5775 8.97615 16.1105 8.32215 15.5085C8.09021 16.1906 7.85621 16.8719 7.62015 17.5525C7.22453 18.686 6.84017 19.8234 6.46715 20.9645C6.34311 21.3404 6.07553 21.652 5.72274 21.8315C5.36994 22.0109 4.96051 22.0436 4.58369 21.9225C4.20686 21.8014 3.89319 21.5362 3.71102 21.1848C3.52884 20.8334 3.49295 20.4243 3.61115 20.0465C3.94115 19.0225 4.35615 17.8165 4.78615 16.5715L4.98915 15.9805C5.50927 14.49 6.00633 12.9914 6.48015 11.4855C6.41015 11.3395 6.33115 11.1735 6.25215 10.9955C6.10808 10.6726 5.98157 10.3421 5.87315 10.0055C5.77115 9.68052 5.65815 9.24152 5.65815 8.79852C5.65815 7.89452 5.86815 6.99652 6.45115 6.33052C6.74262 5.99159 7.12124 5.73882 7.54602 5.59958C7.97081 5.46033 8.42559 5.43991 8.86115 5.54052C10.0411 5.80052 10.2761 6.91352 10.3241 7.29052C10.3861 7.78052 10.3301 8.32752 10.2501 8.82252C10.1271 9.58652 9.89215 10.5165 9.60315 11.5125C9.63664 11.8768 9.72427 12.2341 9.86315 12.5725C10.1101 13.1575 10.5071 13.6265 11.3701 13.7125C12.4461 13.8205 13.2001 13.3735 13.8141 12.4945C14.4741 11.5485 14.8861 10.1795 15.0501 8.82552C15.2071 7.52052 14.9521 6.04852 14.1531 4.94552C13.4031 3.90752 12.0391 3.00552 9.53915 3.00552C6.35015 3.00552 4.17415 5.48552 3.94515 7.75452C3.78715 9.31752 4.13715 10.4095 4.48515 10.9175C4.59638 11.0802 4.67448 11.2631 4.715 11.456C4.75553 11.6488 4.75767 11.8477 4.72132 12.0414C4.68496 12.235 4.61082 12.4196 4.50313 12.5846C4.39543 12.7496 4.25629 12.8918 4.09365 13.003C3.931 13.1143 3.74805 13.1924 3.55522 13.2329C3.36239 13.2734 3.16347 13.2755 2.96981 13.2392C2.77616 13.2028 2.59156 13.1287 2.42655 13.021C2.26155 12.9133 2.11938 12.7742 2.00815 12.6115C1.16115 11.3735 0.751146 9.52152 0.960146 7.45252Z" fill="white"/>
</svg>
